<?xml version="1.0" encoding="UTF-8"?>
<!DOCTYPE svg PUBLIC "-//W3C//DTD SVG 1.1//EN" "http://www.w3.org/Graphics/SVG/1.1/DTD/svg11.dtd">
<!-- Creator: CorelDRAW -->
<svg xmlns="http://www.w3.org/2000/svg" xml:space="preserve" width="210mm" height="297mm" version="1.1" style="shape-rendering:geometricPrecision; text-rendering:geometricPrecision; image-rendering:optimizeQuality; fill-rule:evenodd; clip-rule:evenodd"
viewBox="0 0 21000 29700"
 xmlns:xlink="http://www.w3.org/1999/xlink"
 xmlns:xodm="http://www.corel.com/coreldraw/odm/2003">
 <defs>
  <style type="text/css">
   <![CDATA[
    .str0 {stroke:black;stroke-width:50;stroke-miterlimit:22.9256}
    .fil0 {fill:white}
   ]]>
  </style>
 </defs>
 <g id="Layer_x0020_1">
  <metadata id="CorelCorpID_0Corel-Layer"/>
  <g id="_1670845459856">
   <path class="fil0 str0" d="M4818.65 10144.2c4709.38,0 7064.88,0 7064.88,0 1423.54,104.54 2525.23,1296.32 2525.23,2729.34 0,1433.03 -1101.69,2624.8 -2525.23,2729.34 -2570.07,-20.9 -3854.3,-32.16 -3854.3,-32.16 -589.28,2211.45 -883.91,3317.99 -883.91,3317.99 -1867.1,-12.87 -2800.65,-19.3 -2800.65,-19.3 253,-136.71 379.5,-205.87 379.5,-205.87 920.74,-3332.46 1380.31,-4998.7 1380.31,-4998.7 3763.03,4.83 5676.57,4.83 5740.62,0 361.89,-107.76 610.09,-442.29 610.09,-823.46 0,-379.57 -248.2,-714.1 -610.09,-821.86 -1985.6,4.82 -2978.4,8.04 -2978.4,8.04 803.85,915.14 1205.77,1373.52 1205.77,1373.52 -1857.49,4.82 -2786.24,8.04 -2786.24,8.04 -1644.52,-2176.08 -2467.58,-3264.92 -2467.58,-3264.92z"/>
   <path class="fil0 str0" d="M11190.17 17701.76c-1532.43,-14.48 -2297.85,-22.52 -2297.85,-22.52 3622.12,1799.73 5433.17,2700.39 5433.17,2700.39 -1253.81,-1362.26 -1879.91,-2044.19 -1879.91,-2044.19 1423.54,14.48 2134.52,20.91 2134.52,20.91 -1518.02,-1661.41 -2277.03,-2492.92 -2277.03,-2492.92 -1830.28,0 -2744.61,0 -2744.61,0 1087.27,1225.55 1631.71,1838.33 1631.71,1838.33z"/>
  </g>
 </g>
</svg>
